<?xml version="1.0" encoding="utf-8"?>
<!-- Generator: Adobe Illustrator 26.5.0, SVG Export Plug-In . SVG Version: 6.00 Build 0)  -->
<svg version="1.1" xmlns="http://www.w3.org/2000/svg" xmlns:xlink="http://www.w3.org/1999/xlink" x="0px" y="0px"
	 viewBox="0 0 23 23" style="enable-background:new 0 0 23 23;" xml:space="preserve">
<style type="text/css">
	.st0{fill:none;stroke:#626365;stroke-width:1.11;stroke-miterlimit:10;}
	.st1{fill:#FFFFFF;}
</style>
<g id="Layer_1">
	<circle class="st0" cx="11.5" cy="11.5" r="11"/>
</g>
<g id="Layer_2">
	<g>
		<path class="st1" d="M16.9,8.4C16.9,8.3,16.9,8.3,16.9,8.4c-0.2-0.1-0.3-0.1-0.5-0.1c-0.5-0.1-2.1-0.9-2.4-2.3
			c0,0-0.1-0.4-0.1-0.5c0-0.1,0-0.1-0.1-0.1c0,0,0,0,0,0c-0.6,0-1.3,0-1.9,0c-0.1,0-0.1,0-0.1,0.1c0,2.8,0,5.5,0,8.3
			c0,0.1,0,0.2,0,0.3c-0.1,0.5-0.4,1-0.8,1.2c-0.4,0.2-0.8,0.3-1.3,0.2c-0.1,0-0.3-0.1-0.4-0.1c0,0,0,0,0,0c0,0-0.1-0.1-0.1-0.1
			c-0.6-0.4-0.9-1-0.8-1.7c0.1-0.7,0.5-1.2,1.2-1.5C9.7,12,9.9,12,10.1,12c0.1,0,0.3,0,0.4,0.1c0,0,0.1,0,0.1-0.1c0,0,0,0,0-0.1
			c0-0.5,0-1.6,0-1.6c0-0.1,0-0.3,0-0.4c0,0,0,0-0.1-0.1c-0.3,0-0.5,0-0.8,0c-0.4,0-0.7,0.1-1,0.2c-0.5,0.2-1,0.5-1.4,0.9
			c-0.3,0.3-0.6,0.7-0.8,1.2c-0.2,0.4-0.3,0.9-0.3,1.3c0,0.2,0,0.4,0,0.6c0,0.3,0.1,0.6,0.2,0.8c0.2,0.8,0.7,1.4,1.3,1.9
			C7.7,16.9,7.8,17,7.8,17c0,0,0,0,0,0c0,0,0.1,0.1,0.1,0.1c0.1,0.1,0.2,0.1,0.3,0.2c0.7,0.3,1.5,0.5,2.2,0.4c1-0.1,1.9-0.6,2.5-1.4
			c0.6-0.7,0.9-1.6,0.9-2.6c0-1.4,0-2.8,0-4.1c0,0,0-0.1,0-0.1c0,0,0.1,0,0.1,0c0.5,0.3,1.1,0.6,1.7,0.7c0.3,0.1,0.7,0.1,1.1,0.1
			c0.1,0,0.1,0,0.1-0.1C16.9,9.8,16.9,8.5,16.9,8.4z"/>
	</g>
</g>
<g id="Layer_3">
</g>
</svg>
