<?xml version="1.0" encoding="utf-8"?>
<!-- Generator: Adobe Illustrator 26.3.1, SVG Export Plug-In . SVG Version: 6.00 Build 0)  -->
<svg version="1.1" id="Layer_1" xmlns="http://www.w3.org/2000/svg" xmlns:xlink="http://www.w3.org/1999/xlink" x="0px" y="0px"
	 viewBox="0 0 23 23" style="enable-background:new 0 0 23 23;" xml:space="preserve">
<style type="text/css">
	.st0{fill:none;stroke:#626365;stroke-width:1.112;stroke-miterlimit:10;}
	.st1{fill:#FFFFFF;}
</style>
<g>
	<g>
		<circle class="st0" cx="11.5" cy="11.5" r="11"/>
		<path class="st1" d="M17.6,7.8c-0.4,0.2-0.8,0.3-1.2,0.3c0.2,0,0.5-0.4,0.6-0.5c0.2-0.2,0.3-0.5,0.4-0.7c0,0,0,0,0-0.1
			c0,0,0,0-0.1,0c-0.5,0.2-0.9,0.4-1.4,0.5c0,0-0.1,0-0.1,0c0,0-0.1-0.1-0.1-0.1C15.4,7,15.2,6.9,15,6.8c-0.3-0.1-0.7-0.2-1.1-0.2
			c-0.4,0-0.7,0.1-1,0.3c-0.3,0.2-0.6,0.4-0.8,0.7c-0.2,0.3-0.4,0.6-0.5,1c-0.1,0.3-0.1,0.7,0,1c0,0.1,0,0.1,0,0.1
			c-2-0.3-3.6-1-4.9-2.5C6.5,7,6.5,7,6.4,7.1c-0.6,0.9-0.3,2.3,0.4,3c0.1,0.1,0.2,0.2,0.3,0.3c0,0-0.5,0-1-0.3c-0.1,0-0.1,0-0.1,0
			c0,0.1,0,0.2,0,0.3c0.1,0.9,0.7,1.7,1.6,2c0.1,0,0.2,0.1,0.3,0.1c-0.2,0-0.4,0.1-0.9,0c-0.1,0-0.1,0-0.1,0.1
			c0.4,1.1,1.3,1.5,2,1.6c0.1,0,0.2,0,0.3,0c0,0,0,0,0,0c-0.2,0.3-1,0.6-1.3,0.7c-0.6,0.2-1.3,0.3-2,0.3c-0.1,0-0.1,0-0.2,0
			c0,0,0,0,0,0.1c0.1,0.1,0.3,0.2,0.4,0.3C6.6,15.8,7,16,7.5,16.1c2.4,0.7,5.2,0.2,7-1.6c1.4-1.4,1.9-3.4,1.9-5.4
			C16.5,9,16.6,9,16.6,9c0.4-0.3,0.7-0.6,1-1C17.6,7.9,17.6,7.8,17.6,7.8C17.6,7.8,17.6,7.8,17.6,7.8C17.6,7.7,17.6,7.7,17.6,7.8z"
			/>
	</g>
</g>
<g>
</g>
<g>
</g>
<g>
</g>
<g>
</g>
<g>
</g>
<g>
</g>
</svg>
